<svg xmlns="http://www.w3.org/2000/svg" width="160" height="160" fill="none" viewBox="0 0 160 160"><circle cx="80" cy="80" r="80" fill="url(#a)"/><path fill="#FFF" d="M96.062 41h-12.37l1.427 15.478a1.31 1.31 0 0 1-1.305 1.422h-7.702a1.303 1.303 0 0 1-1.305-1.422L76.31 41H61.543L38 119h30.729l1.542-15.852a2.62 2.62 0 0 1 2.617-2.348h13.92c1.354 0 2.494 1.024 2.617 2.364L90.877 119H122zM71.895 86.378l1.28-13.122a2.62 2.62 0 0 1 2.617-2.348h8.26c1.354 0 2.494 1.024 2.617 2.364l1.206 13.106a1.31 1.31 0 0 1-1.304 1.422H73.208c-.78 0-1.386-.658-1.313-1.422"/><defs><linearGradient id="a" x1="80" x2="80" y1="0" y2="160" gradientUnits="userSpaceOnUse"><stop offset="0" stop-color="#004098"/><stop offset="1" stop-color="#1669DE"/></linearGradient></defs></svg>